<svg width="64" height="64" viewBox="0 0 64 64" fill="none" xmlns="http://www.w3.org/2000/svg">
<path fill-rule="evenodd" clip-rule="evenodd" d="M43 46C43 52.0751 38.0751 57 32 57C25.9249 57 21 52.0751 21 46C21 39.9249 25.9249 35 32 35C38.0751 35 43 39.9249 43 46ZM34.9802 41.2147C36.792 41.2147 38.2155 42.6382 38.2155 44.45C38.2155 47.9441 32.0037 52.0853 32.0037 52.0853C32.0037 52.0853 25.792 48.0735 25.792 44.5794C25.792 43.2853 26.439 42.1206 27.6037 41.6029C29.2861 40.6971 31.2273 41.4735 32.0037 43.0265C32.6508 41.8618 33.6861 41.2147 34.9802 41.2147Z" fill="#1E659B"/>
<mask id="path-2-inside-1_2177_19244" fill="white">
<path fill-rule="evenodd" clip-rule="evenodd" d="M20.1067 27.8216H20.624C26.5407 27.8995 31.7545 30.8828 34.9114 35.3894C34.0567 35.1554 33.1604 35.0219 32.2361 35.0025C29.5545 31.9627 25.5375 29.9997 20.5 29.9997C10 29.9997 4 38.7234 4 46.9997H21.0448C21.1067 47.6866 21.2317 48.3552 21.414 48.9997H4C3 48.9997 2 47.9999 2 46.9999C2.12933 37.1706 10.2773 27.6923 20.1067 27.8216ZM42.6083 48.9198C42.7287 48.9712 42.8613 48.9997 43.0005 48.9997H60.0005C61.0005 48.9997 62.0005 47.9997 62.0005 46.9997V44.9997C61.8712 35.041 54.3792 27.9528 44.4206 27.9528C42.0505 27.9528 39.6805 28.3468 37.4823 29.2206C36.9558 29.4299 36.7485 30.0524 37.0096 30.5553C37.2752 31.0669 37.9188 31.2474 38.4526 31.0298C40.9797 29.9997 44.4206 29.9997 44.4206 29.9997C52.4366 29.9997 59.8662 36.9763 60.0004 44.9916L60.0005 45.007V45.9997C60.0005 46.552 59.5528 46.9997 59.0005 46.9997H43.0005C42.9853 46.9997 42.9701 47 42.9551 47.0007C42.8957 47.6588 42.7784 48.3003 42.6083 48.9198Z"/>
</mask>
<path fill-rule="evenodd" clip-rule="evenodd" d="M20.1067 27.8216H20.624C26.5407 27.8995 31.7545 30.8828 34.9114 35.3894C34.0567 35.1554 33.1604 35.0219 32.2361 35.0025C29.5545 31.9627 25.5375 29.9997 20.5 29.9997C10 29.9997 4 38.7234 4 46.9997H21.0448C21.1067 47.6866 21.2317 48.3552 21.414 48.9997H4C3 48.9997 2 47.9999 2 46.9999C2.12933 37.1706 10.2773 27.6923 20.1067 27.8216ZM42.6083 48.9198C42.7287 48.9712 42.8613 48.9997 43.0005 48.9997H60.0005C61.0005 48.9997 62.0005 47.9997 62.0005 46.9997V44.9997C61.8712 35.041 54.3792 27.9528 44.4206 27.9528C42.0505 27.9528 39.6805 28.3468 37.4823 29.2206C36.9558 29.4299 36.7485 30.0524 37.0096 30.5553C37.2752 31.0669 37.9188 31.2474 38.4526 31.0298C40.9797 29.9997 44.4206 29.9997 44.4206 29.9997C52.4366 29.9997 59.8662 36.9763 60.0004 44.9916L60.0005 45.007V45.9997C60.0005 46.552 59.5528 46.9997 59.0005 46.9997H43.0005C42.9853 46.9997 42.9701 47 42.9551 47.0007C42.8957 47.6588 42.7784 48.3003 42.6083 48.9198Z" fill="#092C53"/>
<path d="M20.624 27.8216L20.6503 25.8218L20.6372 25.8216H20.624V27.8216ZM20.1067 27.8216L20.0804 29.8214L20.0935 29.8216H20.1067V27.8216ZM34.9114 35.3894L34.3833 37.3184L39.7298 38.782L36.5495 34.2419L34.9114 35.3894ZM32.2361 35.0025L30.7363 36.3256L31.3168 36.9836L32.194 37.002L32.2361 35.0025ZM4 46.9997H2V48.9997H4V46.9997ZM21.0448 46.9997L23.0368 46.8203L22.8727 44.9997H21.0448V46.9997ZM21.414 48.9997V50.9997H24.0581L23.3385 48.4555L21.414 48.9997ZM2 46.9999L0.000173108 46.9736L0 46.9868V46.9999H2ZM42.6083 48.9198L40.6797 48.3902L40.2173 50.0739L41.8231 50.7593L42.6083 48.9198ZM62.0005 44.9997H64.0005V44.9867L64.0004 44.9737L62.0005 44.9997ZM37.4823 29.2206L38.2211 31.0791L38.2211 31.0791L37.4823 29.2206ZM37.0096 30.5553L35.2346 31.477L35.2346 31.477L37.0096 30.5553ZM38.4526 31.0298L37.6976 29.1778L37.6976 29.1778L38.4526 31.0298ZM60.0004 44.9916L62.0003 44.9738L62.0002 44.966L62.0001 44.9581L60.0004 44.9916ZM60.0005 45.007H62.0005V44.9981L62.0004 44.9892L60.0005 45.007ZM42.9551 47.0007L42.8657 45.0027L41.1201 45.0808L40.9632 46.8211L42.9551 47.0007ZM20.624 25.8216H20.1067V29.8216H20.624V25.8216ZM36.5495 34.2419C33.0401 29.2321 27.2383 25.9085 20.6503 25.8218L20.5977 29.8214C25.8432 29.8905 30.4689 32.5335 33.2733 36.5369L36.5495 34.2419ZM35.4394 33.4604C34.4277 33.1834 33.3683 33.0259 32.2782 33.0029L32.194 37.002C32.9525 37.018 33.6856 37.1274 34.3833 37.3184L35.4394 33.4604ZM20.5 31.9997C24.9861 31.9997 28.449 33.7328 30.7363 36.3256L33.7359 33.6794C30.66 30.1927 26.0889 27.9997 20.5 27.9997V31.9997ZM6 46.9997C6 39.568 11.3477 31.9997 20.5 31.9997V27.9997C8.65229 27.9997 2 37.8788 2 46.9997H6ZM21.0448 44.9997H4V48.9997H21.0448V44.9997ZM19.0529 47.1792C19.126 47.9905 19.2737 48.7812 19.4895 49.544L23.3385 48.4555C23.1897 47.9292 23.0874 47.3827 23.0368 46.8203L19.0529 47.1792ZM4 50.9997H21.414V46.9997H4V50.9997ZM0 46.9999C0 48.1504 0.55513 49.1335 1.21087 49.7891C1.86662 50.4448 2.84966 50.9997 4 50.9997V46.9997C4.0418 46.9997 4.07232 47.005 4.09012 47.0092C4.10764 47.0134 4.11438 47.0169 4.11128 47.0155C4.10821 47.014 4.09864 47.0092 4.08448 46.9991C4.07038 46.9891 4.05472 46.9761 4.03913 46.9605C4.02353 46.9449 4.01054 46.9293 4.00055 46.9152C3.99052 46.9011 3.98564 46.8915 3.98422 46.8885C3.98278 46.8854 3.98635 46.8921 3.99053 46.9097C3.99477 46.9275 4 46.9581 4 46.9999H0ZM20.133 25.8218C8.99093 25.6752 0.141138 36.2602 0.000173108 46.9736L3.99983 47.0262C4.11753 38.0809 11.5637 29.7094 20.0804 29.8214L20.133 25.8218ZM43.0005 46.9997C43.136 46.9997 43.2702 47.0278 43.3934 47.0804L41.8231 50.7593C42.1872 50.9147 42.5865 50.9997 43.0005 50.9997V46.9997ZM60.0005 46.9997H43.0005V50.9997H60.0005V46.9997ZM60.0005 46.9997C60.0005 46.9579 60.0057 46.9273 60.01 46.9095C60.0142 46.892 60.0177 46.8852 60.0163 46.8883C60.0148 46.8914 60.01 46.9009 59.9999 46.9151C59.9899 46.9292 59.9769 46.9449 59.9613 46.9605C59.9457 46.9761 59.93 46.9891 59.9159 46.9991C59.9018 47.0091 59.8922 47.014 59.8891 47.0154C59.886 47.0169 59.8928 47.0133 59.9103 47.0092C59.9281 47.0049 59.9587 46.9997 60.0005 46.9997V50.9997C61.151 50.9997 62.134 50.4446 62.7897 49.7889C63.4454 49.1332 64.0005 48.1502 64.0005 46.9997H60.0005ZM60.0005 44.9997V46.9997H64.0005V44.9997H60.0005ZM44.4206 29.9528C53.3321 29.9528 59.8862 36.208 60.0007 45.0257L64.0004 44.9737C63.8562 33.874 55.4264 25.9528 44.4206 25.9528V29.9528ZM38.2211 31.0791C40.1536 30.3109 42.2684 29.9528 44.4206 29.9528V25.9528C41.8327 25.9528 39.2074 26.3826 36.7435 27.362L38.2211 31.0791ZM38.7845 29.6336C39.0277 30.1018 38.8766 30.8186 38.2211 31.0791L36.7435 27.362C35.035 28.0412 34.4692 30.003 35.2346 31.477L38.7845 29.6336ZM37.6976 29.1778C37.8637 29.1101 38.0483 29.1009 38.2296 29.1578C38.4211 29.2179 38.6467 29.3682 38.7845 29.6336L35.2346 31.477C36.0546 33.056 37.882 33.4222 39.2075 32.8818L37.6976 29.1778ZM44.4206 29.9997C44.4206 27.9997 44.4203 27.9997 44.42 27.9997C44.4198 27.9997 44.4195 27.9997 44.4193 27.9997C44.4188 27.9997 44.4182 27.9997 44.4176 27.9997C44.4164 27.9997 44.415 27.9997 44.4134 27.9997C44.4101 27.9997 44.406 27.9997 44.4011 27.9997C44.3913 27.9998 44.3781 27.9999 44.3618 28C44.3293 28.0004 44.284 28.001 44.2272 28.0021C44.1135 28.0044 43.9531 28.0089 43.7546 28.0178C43.3587 28.0354 42.8057 28.0704 42.1666 28.1403C40.9199 28.2768 39.2141 28.5596 37.6976 29.1778L39.2075 32.8818C40.2181 32.4699 41.4963 32.2376 42.6019 32.1166C43.1389 32.0578 43.6041 32.0284 43.9323 32.0138C44.0959 32.0065 44.224 32.003 44.3084 32.0013C44.3506 32.0004 44.3817 32 44.4008 31.9998C44.4103 31.9998 44.4168 31.9997 44.4202 31.9997C44.4219 31.9997 44.4227 31.9997 44.4228 31.9997C44.4228 31.9997 44.4227 31.9997 44.4223 31.9997C44.4221 31.9997 44.4219 31.9997 44.4216 31.9997C44.4215 31.9997 44.4212 31.9997 44.4211 31.9997C44.4209 31.9997 44.4206 31.9997 44.4206 29.9997ZM62.0001 44.9581C61.8467 35.7967 53.4724 27.9997 44.4206 27.9997V31.9997C51.4007 31.9997 57.8857 38.156 58.0007 45.0251L62.0001 44.9581ZM62.0004 44.9892L62.0003 44.9738L58.0005 45.0094L58.0006 45.0248L62.0004 44.9892ZM62.0005 45.9997V45.007H58.0005V45.9997H62.0005ZM59.0005 48.9997C60.6574 48.9997 62.0005 47.6565 62.0005 45.9997H58.0005C58.0005 45.4474 58.4482 44.9997 59.0005 44.9997V48.9997ZM43.0005 48.9997H59.0005V44.9997H43.0005V48.9997ZM43.0444 48.9987C43.0297 48.9994 43.015 48.9997 43.0005 48.9997V44.9997C42.9556 44.9997 42.9106 45.0007 42.8657 45.0027L43.0444 48.9987ZM44.5369 49.4495C44.7382 48.7162 44.8769 47.9577 44.947 47.1803L40.9632 46.8211C40.9146 47.36 40.8186 47.8843 40.6797 48.3902L44.5369 49.4495Z" fill="#092C53" mask="url(#path-2-inside-1_2177_19244)"/>
<path d="M28 16C28 20.4183 24.4183 24 20 24C15.5817 24 12 20.4183 12 16C12 11.5817 15.5817 8 20 8C24.4183 8 28 11.5817 28 16ZM52 16C52 20.4183 48.4183 24 44 24C39.5817 24 36 20.4183 36 16C36 11.5817 39.5817 8 44 8C48.4183 8 52 11.5817 52 16Z" stroke="#092C53" stroke-width="2"/>
</svg>
